<svg width="916" height="189" xmlns="http://www.w3.org/2000/svg" xmlns:xlink="http://www.w3.org/1999/xlink" xml:space="preserve" overflow="hidden"><defs><clipPath id="clip0"><rect x="752" y="-132" width="916" height="189"/></clipPath><clipPath id="clip1"><rect x="753" y="-131" width="914" height="188"/></clipPath><clipPath id="clip2"><rect x="753" y="-131" width="914" height="188"/></clipPath><clipPath id="clip3"><rect x="753" y="-131" width="914" height="188"/></clipPath></defs><g clip-path="url(#clip0)" transform="translate(-752 132)"><g clip-path="url(#clip1)"><g clip-path="url(#clip2)"><g clip-path="url(#clip3)"><path d="M187.935 0 0 188 3.0277 188 191.029 0 187.935 0Z" fill="#985B9C" fill-rule="nonzero" fill-opacity="0.5" transform="matrix(1.00353 0 0 1 753.09 -131)"/><path d="M199.56 0 11.5602 188 14.5534 188 202.553 0 199.56 0Z" fill="#985B9C" fill-rule="nonzero" fill-opacity="0.5" transform="matrix(1.00353 0 0 1 753.09 -131)"/><path d="M210.902 0 22.9032 188 25.9036 188 213.84 0 210.902 0Z" fill="#985B9C" fill-rule="nonzero" fill-opacity="0.5" transform="matrix(1.00353 0 0 1 753.09 -131)"/><path d="M222.348 0 34.3478 188 37.3411 188 225.34 0 222.348 0Z" fill="#985B9C" fill-rule="nonzero" fill-opacity="0.5" transform="matrix(1.00353 0 0 1 753.09 -131)"/><path d="M233.713 0 45.7138 188 48.8086 188 236.808 0 233.713 0Z" fill="#985B9C" fill-rule="nonzero" fill-opacity="0.5" transform="matrix(1.00353 0 0 1 753.09 -131)"/><path d="M245.135 0 57.1354 188 60.1287 188 248.128 0 245.135 0Z" fill="#985B9C" fill-rule="nonzero" fill-opacity="0.5" transform="matrix(1.00353 0 0 1 753.09 -131)"/><path d="M256.683 0 68.6162 188 71.6165 188 259.617 0 256.683 0Z" fill="#985B9C" fill-rule="nonzero" fill-opacity="0.5" transform="matrix(1.00353 0 0 1 753.09 -131)"/><path d="M267.92 0 79.9213 188 82.9164 188 270.916 0 267.92 0Z" fill="#985B9C" fill-rule="nonzero" fill-opacity="0.5" transform="matrix(1.00353 0 0 1 753.09 -131)"/><path d="M279.491 0 91.4268 188 94.4253 188 282.424 0 279.491 0Z" fill="#985B9C" fill-rule="nonzero" fill-opacity="0.5" transform="matrix(1.00353 0 0 1 753.09 -131)"/><path d="M290.804 0 102.802 188 105.8 188 293.799 0 290.804 0Z" fill="#985B9C" fill-rule="nonzero" fill-opacity="0.5" transform="matrix(1.00353 0 0 1 753.09 -131)"/><path d="M302.361 0 114.361 188 117.354 188 305.354 0 302.361 0Z" fill="#985B9C" fill-rule="nonzero" fill-opacity="0.5" transform="matrix(1.00353 0 0 1 753.09 -131)"/><path d="M313.753 0 125.754 188 128.748 188 316.749 0 313.753 0Z" fill="#985B9C" fill-rule="nonzero" fill-opacity="0.5" transform="matrix(1.00353 0 0 1 753.09 -131)"/><path d="M325.111 0 137.109 188 140.109 188 328.047 0 325.111 0Z" fill="#985B9C" fill-rule="nonzero" fill-opacity="0.5" transform="matrix(1.00353 0 0 1 753.09 -131)"/><path d="M336.515 0 148.515 188 151.512 188 339.45 0 336.515 0Z" fill="#985B9C" fill-rule="nonzero" fill-opacity="0.5" transform="matrix(1.00353 0 0 1 753.09 -131)"/><path d="M348.081 0 160.015 188 163.014 188 351.014 0 348.081 0Z" fill="#985B9C" fill-rule="nonzero" fill-opacity="0.5" transform="matrix(1.00353 0 0 1 753.09 -131)"/><path d="M359.484 0 171.42 188 174.42 188 362.42 0 359.484 0Z" fill="#985B9C" fill-rule="nonzero" fill-opacity="0.5" transform="matrix(1.00353 0 0 1 753.09 -131)"/><path d="M371.874 0 355.219 16.6546 371.964 0 371.874 0Z" fill="#985B9C" fill-rule="nonzero" fill-opacity="0.5" transform="matrix(1.00353 0 0 1 753.09 -131)"/><path d="M371.964 0 355.219 16.6546 182.95 188 185.953 188 374.966 0 371.964 0Z" fill="#985B9C" fill-rule="nonzero" fill-opacity="0.5" transform="matrix(1.00353 0 0 1 753.09 -131)"/><path d="M382.295 0 194.227 188 197.131 188 385.065 0 382.295 0Z" fill="#985B9C" fill-rule="nonzero" fill-opacity="0.5" transform="matrix(1.00353 0 0 1 753.09 -131)"/><path d="M393.536 0 205.537 188 208.565 188 396.629 0 393.536 0Z" fill="#985B9C" fill-rule="nonzero" fill-opacity="0.5" transform="matrix(1.00353 0 0 1 753.09 -131)"/><path d="M404.945 0 217.007 188 220.102 188 408.038 0 404.945 0Z" fill="#985B9C" fill-rule="nonzero" fill-opacity="0.5" transform="matrix(1.00353 0 0 1 753.09 -131)"/><path d="M416.555 0 228.555 188 231.548 188 419.55 0 416.555 0Z" fill="#985B9C" fill-rule="nonzero" fill-opacity="0.5" transform="matrix(1.00353 0 0 1 753.09 -131)"/><path d="M427.912 0 239.912 188 243.01 188 431.009 0 427.912 0Z" fill="#985B9C" fill-rule="nonzero" fill-opacity="0.5" transform="matrix(1.00353 0 0 1 753.09 -131)"/><path d="M440.494 0 423.646 16.8478 440.583 0 440.494 0Z" fill="#985B9C" fill-rule="nonzero" fill-opacity="0.5" transform="matrix(1.00353 0 0 1 753.09 -131)"/><path d="M440.584 0 423.644 16.8478 251.57 188 254.573 188 443.586 0 440.584 0Z" fill="#985B9C" fill-rule="nonzero" fill-opacity="0.5" transform="matrix(1.00353 0 0 1 753.09 -131)"/><path d="M450.882 0 262.815 188 265.72 188 453.656 0 450.882 0Z" fill="#985B9C" fill-rule="nonzero" fill-opacity="0.5" transform="matrix(1.00353 0 0 1 753.09 -131)"/><path d="M462.287 0 274.22 188 277.221 188 465.221 0 462.287 0Z" fill="#985B9C" fill-rule="nonzero" fill-opacity="0.5" transform="matrix(1.00353 0 0 1 753.09 -131)"/><path d="M473.692 0 285.626 188 288.529 188 476.467 0 473.692 0Z" fill="#985B9C" fill-rule="nonzero" fill-opacity="0.5" transform="matrix(1.00353 0 0 1 753.09 -131)"/><path d="M485.095 0 297.029 188 300.031 188 488.031 0 485.095 0Z" fill="#985B9C" fill-rule="nonzero" fill-opacity="0.5" transform="matrix(1.00353 0 0 1 753.09 -131)"/><path d="M496.406 0 308.404 188 311.399 188 499.399 0 496.406 0Z" fill="#985B9C" fill-rule="nonzero" fill-opacity="0.5" transform="matrix(1.00353 0 0 1 753.09 -131)"/><path d="M509.115 0 492.162 16.952 509.207 0 509.115 0Z" fill="#985B9C" fill-rule="nonzero" fill-opacity="0.5" transform="matrix(1.00353 0 0 1 753.09 -131)"/><path d="M509.207 0 492.162 16.952 320.191 188 323.193 188 512.207 0 509.207 0Z" fill="#985B9C" fill-rule="nonzero" fill-opacity="0.5" transform="matrix(1.00353 0 0 1 753.09 -131)"/><path d="M519.307 0 331.243 188 334.31 188 522.245 0 519.307 0Z" fill="#985B9C" fill-rule="nonzero" fill-opacity="0.5" transform="matrix(1.00353 0 0 1 753.09 -131)"/><path d="M530.716 0 342.716 188 345.713 188 533.651 0 530.716 0Z" fill="#985B9C" fill-rule="nonzero" fill-opacity="0.5" transform="matrix(1.00353 0 0 1 753.09 -131)"/><path d="M542.142 0 354.142 188 357.138 188 545.139 0 542.142 0Z" fill="#985B9C" fill-rule="nonzero" fill-opacity="0.5" transform="matrix(1.00353 0 0 1 753.09 -131)"/><path d="M553.685 0 365.619 188 368.618 188 556.618 0 553.685 0Z" fill="#985B9C" fill-rule="nonzero" fill-opacity="0.5" transform="matrix(1.00353 0 0 1 753.09 -131)"/><path d="M564.929 0 376.929 188 379.924 188 567.927 0 564.929 0Z" fill="#985B9C" fill-rule="nonzero" fill-opacity="0.5" transform="matrix(1.00353 0 0 1 753.09 -131)"/><path d="M576.494 0 388.427 188 391.333 188 579.267 0 576.494 0Z" fill="#985B9C" fill-rule="nonzero" fill-opacity="0.5" transform="matrix(1.00353 0 0 1 753.09 -131)"/><path d="M587.901 0 399.9 188 402.736 188 590.673 0 587.901 0Z" fill="#985B9C" fill-rule="nonzero" fill-opacity="0.5" transform="matrix(1.00353 0 0 1 753.09 -131)"/><path d="M599.143 0 411.208 188 414.169 188 602.236 0 599.143 0Z" fill="#985B9C" fill-rule="nonzero" fill-opacity="0.5" transform="matrix(1.00353 0 0 1 753.09 -131)"/><path d="M610.764 0 422.762 188 425.757 188 613.757 0 610.764 0Z" fill="#985B9C" fill-rule="nonzero" fill-opacity="0.5" transform="matrix(1.00353 0 0 1 753.09 -131)"/><path d="M621.952 0 434.016 188 437.112 188 625.048 0 621.952 0Z" fill="#985B9C" fill-rule="nonzero" fill-opacity="0.5" transform="matrix(1.00353 0 0 1 753.09 -131)"/><path d="M633.552 0 445.55 188 448.545 188 636.545 0 633.552 0Z" fill="#985B9C" fill-rule="nonzero" fill-opacity="0.5" transform="matrix(1.00353 0 0 1 753.09 -131)"/><path d="M644.921 0 456.922 188 460.017 188 648.016 0 644.921 0Z" fill="#985B9C" fill-rule="nonzero" fill-opacity="0.5" transform="matrix(1.00353 0 0 1 753.09 -131)"/><path d="M656.488 0 468.421 188 471.422 188 659.421 0 656.488 0Z" fill="#985B9C" fill-rule="nonzero" fill-opacity="0.5" transform="matrix(1.00353 0 0 1 753.09 -131)"/><path d="M667.891 0 479.824 188 482.73 188 670.665 0 667.891 0Z" fill="#985B9C" fill-rule="nonzero" fill-opacity="0.5" transform="matrix(1.00353 0 0 1 753.09 -131)"/><path d="M679.296 0 491.23 188 494.133 188 682.071 0 679.296 0Z" fill="#985B9C" fill-rule="nonzero" fill-opacity="0.5" transform="matrix(1.00353 0 0 1 753.09 -131)"/><path d="M690.518 0 502.518 188 505.514 188 693.513 0 690.518 0Z" fill="#985B9C" fill-rule="nonzero" fill-opacity="0.5" transform="matrix(1.00353 0 0 1 753.09 -131)"/><path d="M702.008 0 514.006 188 517.004 188 705.003 0 702.008 0Z" fill="#985B9C" fill-rule="nonzero" fill-opacity="0.5" transform="matrix(1.00353 0 0 1 753.09 -131)"/><path d="M713.349 0 525.415 188 528.509 188 716.447 0 713.349 0Z" fill="#985B9C" fill-rule="nonzero" fill-opacity="0.5" transform="matrix(1.00353 0 0 1 753.09 -131)"/><path d="M724.752 0 536.752 188 539.914 188 727.849 0 724.752 0Z" fill="#985B9C" fill-rule="nonzero" fill-opacity="0.5" transform="matrix(1.00353 0 0 1 753.09 -131)"/><path d="M736.351 0 548.351 188 551.346 188 739.346 0 736.351 0Z" fill="#985B9C" fill-rule="nonzero" fill-opacity="0.5" transform="matrix(1.00353 0 0 1 753.09 -131)"/><path d="M747.725 0 559.725 188 562.723 188 750.66 0 747.725 0Z" fill="#985B9C" fill-rule="nonzero" fill-opacity="0.5" transform="matrix(1.00353 0 0 1 753.09 -131)"/><path d="M760.292 0 742.515 17.7762 760.386 0 760.292 0Z" fill="#985B9C" fill-rule="nonzero" fill-opacity="0.5" transform="matrix(1.00353 0 0 1 753.09 -131)"/><path d="M760.386 0 742.513 17.7762 571.373 188 574.377 188 763.391 0 760.386 0Z" fill="#985B9C" fill-rule="nonzero" fill-opacity="0.5" transform="matrix(1.00353 0 0 1 753.09 -131)"/><path d="M770.695 0 582.628 188 585.628 188 773.627 0 770.695 0Z" fill="#985B9C" fill-rule="nonzero" fill-opacity="0.5" transform="matrix(1.00353 0 0 1 753.09 -131)"/><path d="M782.101 0 594.099 188 596.935 188 784.871 0 782.101 0Z" fill="#985B9C" fill-rule="nonzero" fill-opacity="0.5" transform="matrix(1.00353 0 0 1 753.09 -131)"/><path d="M793.318 0 605.319 188 608.312 188 796.314 0 793.318 0Z" fill="#985B9C" fill-rule="nonzero" fill-opacity="0.5" transform="matrix(1.00353 0 0 1 753.09 -131)"/><path d="M804.744 0 616.745 188 619.775 188 807.839 0 804.744 0Z" fill="#985B9C" fill-rule="nonzero" fill-opacity="0.5" transform="matrix(1.00353 0 0 1 753.09 -131)"/><path d="M816.202 0 628.202 188 631.195 188 819.195 0 816.202 0Z" fill="#985B9C" fill-rule="nonzero" fill-opacity="0.5" transform="matrix(1.00353 0 0 1 753.09 -131)"/><path d="M829.513 0 813.076 16.5275 829.603 0 829.513 0Z" fill="#985B9C" fill-rule="nonzero" fill-opacity="0.5" transform="matrix(1.00353 0 0 1 753.09 -131)"/><path d="M826.524 0 639.532 188 642.521 188 813.076 16.5275 829.513 0 826.524 0Z" fill="#985B9C" fill-rule="nonzero" fill-opacity="0.5" transform="matrix(1.00353 0 0 1 753.09 -131)"/><path d="M839.154 0 651.151 188 654.147 188 842.147 0 839.154 0Z" fill="#985B9C" fill-rule="nonzero" fill-opacity="0.5" transform="matrix(1.00353 0 0 1 753.09 -131)"/><path d="M850.525 0 662.526 188 665.524 188 853.461 0 850.525 0Z" fill="#985B9C" fill-rule="nonzero" fill-opacity="0.5" transform="matrix(1.00353 0 0 1 753.09 -131)"/><path d="M862.092 0 674.025 188 676.929 188 864.866 0 862.092 0Z" fill="#985B9C" fill-rule="nonzero" fill-opacity="0.5" transform="matrix(1.00353 0 0 1 753.09 -131)"/><path d="M873.332 0 685.332 188 688.328 188 876.327 0 873.332 0Z" fill="#985B9C" fill-rule="nonzero" fill-opacity="0.5" transform="matrix(1.00353 0 0 1 753.09 -131)"/><path d="M884.723 0 696.725 188 699.722 188 887.723 0 884.723 0Z" fill="#985B9C" fill-rule="nonzero" fill-opacity="0.5" transform="matrix(1.00353 0 0 1 753.09 -131)"/><path d="M907.605 0 719.609 188 722.604 188 910.605 0 907.605 0Z" fill="#985B9C" fill-rule="nonzero" fill-opacity="0.5" transform="matrix(1.00353 0 0 1 753.09 -131)"/><path d="M896.31 0 708.307 188 711.143 188 899.081 0 896.31 0Z" fill="#985B9C" fill-rule="nonzero" fill-opacity="0.5" transform="matrix(1.00353 0 0 1 753.09 -131)"/></g></g></g></g></svg>