<svg width="967" height="1068" xmlns="http://www.w3.org/2000/svg" xmlns:xlink="http://www.w3.org/1999/xlink" xml:space="preserve" overflow="hidden"><defs><clipPath id="clip0"><rect x="820" y="1342" width="967" height="1068"/></clipPath></defs><g clip-path="url(#clip0)" transform="translate(-820 -1342)"><path d="M1783 2175.67 1583.7 2175.67 1583.7 1977 1550.94 1977 1550.94 2175.67 1353 2175.67 1353 2208.33 1550.94 2208.33 1550.94 2407 1583.7 2407 1583.7 2208.33 1783 2208.33 1783 2175.67Z" fill="#FFFFFF" fill-rule="evenodd" fill-opacity="0.25098"/><path d="M1367 1488.15 1222.39 1488.15 1222.39 1344 1198.62 1344 1198.62 1488.15 1055 1488.15 1055 1511.85 1198.62 1511.85 1198.62 1656 1222.39 1656 1222.39 1511.85 1367 1511.85 1367 1488.15Z" fill="#985B9C" fill-rule="evenodd" fill-opacity="0.501961"/><path d="M1018 1690.1 927.621 1690.1 927.621 1600 912.764 1600 912.764 1690.1 823 1690.1 823 1704.91 912.764 1704.91 912.764 1795 927.621 1795 927.621 1704.91 1018 1704.91 1018 1690.1Z" fill="#FFFFFF" fill-rule="evenodd" fill-opacity="0.25098"/></g></svg>